
<svg width="50" height="50" viewBox="0 0 50 50" fill="none" xmlns="http://www.w3.org/2000/svg">
<path d="M41.6667 6.25H8.33336C6.03544 6.25 4.16669 8.11875 4.16669 10.4167V39.5833C4.16669 41.8812 6.03544 43.75 8.33336 43.75H41.6667C43.9646 43.75 45.8334 41.8812 45.8334 39.5833V10.4167C45.8334 8.11875 43.9646 6.25 41.6667 6.25ZM8.33336 39.5833V14.5833H41.6667L41.6709 39.5833H8.33336Z" fill="#153956"/>
<path d="M19.3604 19.3604L11.6375 27.0833L19.3604 34.8062L22.3063 31.8604L17.5292 27.0833L22.3063 22.3062L19.3604 19.3604ZM30.6396 19.3604L27.6938 22.3062L32.4709 27.0833L27.6938 31.8604L30.6396 34.8062L38.3625 27.0833L30.6396 19.3604Z" fill="#153956"/>
</svg>
