
<svg width="75" height="75" viewBox="0 0 75 75" fill="none" xmlns="http://www.w3.org/2000/svg">
<g clip-path="url(#clip0)">
<path fill-rule="evenodd" clip-rule="evenodd" d="M37.3875 0C27.4721 0.00124292 17.9632 3.94067 10.9519 10.9519C3.94067 17.9632 0.00124292 27.4721 0 37.3875C0 53.8969 10.7813 67.8891 25.4578 72.9375C27.2953 73.1672 27.9797 72.0188 27.9797 71.1V64.6781C17.6625 66.975 15.3703 59.6344 15.3703 59.6344C13.7625 55.275 11.2406 54.1266 11.2406 54.1266C7.8 51.8344 11.4656 51.8344 11.4656 51.8344C15.1359 52.0641 17.2031 55.7344 17.2031 55.7344C20.6438 61.4672 25.9172 59.8594 27.9844 58.9453C28.2094 56.4234 29.3578 54.8203 30.2766 53.9016C22.0172 52.9828 13.3031 49.7719 13.3031 35.3203C13.3031 31.1953 14.6766 27.9797 17.2031 25.2281C16.9688 24.5391 15.5953 20.6438 17.6625 15.5953C17.6625 15.5953 20.8734 14.6766 27.9797 19.4953C30.9609 18.5766 34.1766 18.3469 37.3875 18.3469C40.5984 18.3469 43.8094 18.8063 46.7906 19.4953C53.9016 14.6813 57.1125 15.5953 57.1125 15.5953C59.175 20.6438 57.7969 24.5391 57.5672 25.4578C60.0932 28.2098 61.4863 31.8145 61.4672 35.55C61.4672 50.0016 52.7484 52.9828 44.4984 53.9016C45.8719 55.0453 47.0203 57.3375 47.0203 60.7781V71.1C47.0203 72.0188 47.7047 73.1625 49.5422 72.9375C56.9766 70.4285 63.4344 65.6464 68.0028 59.267C72.5711 52.8877 75.0188 45.2339 75 37.3875C74.7703 16.7438 58.0312 0 37.3875 0Z" fill="white"/>
</g>
<defs>
<clipPath id="clip0">
<rect width="75" height="75" fill="white"/>
</clipPath>
</defs>
</svg>
