
<svg width="75" height="75" viewBox="0 0 75 75" fill="none" xmlns="http://www.w3.org/2000/svg">
<path d="M0 0V75H75V0H0ZM18.3929 14.7446C21.3636 14.778 24.2898 16.8274 24.4171 20.3751C24.4806 23.5298 21.7314 25.9326 18.3151 26.0056H18.2327C15.2917 25.9716 12.4195 23.8708 12.2864 20.3751C12.3283 17.2555 14.9506 14.8186 18.3929 14.7446V14.7446ZM50.2624 29.6494C53.5284 29.6696 56.6107 30.6385 59.1431 33.22C61.7747 36.155 62.6196 40.2019 62.7136 44.3161V63.0295H51.9287V45.5887C51.9047 42.3198 50.7849 38.3464 46.4584 38.2141C43.9228 38.2411 42.1347 39.7146 40.9103 42.1784C40.5761 42.9714 40.5279 43.8829 40.5121 44.7922V63.0295H29.7318C29.773 53.9122 29.8297 44.7956 29.8096 35.6781C29.8096 33.0882 29.7846 31.3444 29.7318 30.4459H40.5121V35.0418C41.4271 33.7404 42.442 32.5061 43.8033 31.5124C45.6499 30.1946 47.8681 29.6894 50.2624 29.6494V29.6494ZM12.9227 30.4459H23.703V63.0295H12.9227V30.4459V30.4459Z" fill="white"/>
</svg>
